<svg width="27" height="30" viewBox="0 0 27 30" fill="none" xmlns="http://www.w3.org/2000/svg">
<g clip-path="url(#clip0_286_3415)">
<path d="M19.125 0H7.125C5.23533 0 3.42306 0.750667 2.08686 2.08686C0.750668 3.42306 0 5.23533 0 7.125V22.875C0 23.8107 0.184294 24.7372 0.542358 25.6016C0.900423 26.4661 1.42525 27.2515 2.08686 27.9131C3.42306 29.2493 5.23533 30 7.125 30H19.125C21.0135 29.996 22.8234 29.2441 24.1588 27.9088C25.4941 26.5734 26.246 24.7635 26.25 22.875V7.125C26.246 5.23655 25.4941 3.42658 24.1588 2.09124C22.8234 0.755903 21.0135 0.00396318 19.125 0ZM7.875 25.125H6.375C6.07663 25.125 5.79048 25.0065 5.5795 24.7955C5.36853 24.5845 5.25 24.2984 5.25 24C5.25 23.7016 5.36853 23.4155 5.5795 23.2045C5.79048 22.9935 6.07663 22.875 6.375 22.875H7.875C8.17337 22.875 8.45952 22.9935 8.67049 23.2045C8.88147 23.4155 9 23.7016 9 24C9 24.2984 8.88147 24.5845 8.67049 24.7955C8.45952 25.0065 8.17337 25.125 7.875 25.125ZM7.875 21.375H6.375C6.07663 21.375 5.79048 21.2565 5.5795 21.0455C5.36853 20.8345 5.25 20.5484 5.25 20.25C5.25 19.9516 5.36853 19.6655 5.5795 19.4545C5.79048 19.2435 6.07663 19.125 6.375 19.125H7.875C8.17337 19.125 8.45952 19.2435 8.67049 19.4545C8.88147 19.6655 9 19.9516 9 20.25C9 20.5484 8.88147 20.8345 8.67049 21.0455C8.45952 21.2565 8.17337 21.375 7.875 21.375ZM7.875 17.625H6.375C6.07663 17.625 5.79048 17.5065 5.5795 17.2955C5.36853 17.0845 5.25 16.7984 5.25 16.5C5.25 16.2016 5.36853 15.9155 5.5795 15.7045C5.79048 15.4935 6.07663 15.375 6.375 15.375H7.875C8.17337 15.375 8.45952 15.4935 8.67049 15.7045C8.88147 15.9155 9 16.2016 9 16.5C9 16.7984 8.88147 17.0845 8.67049 17.2955C8.45952 17.5065 8.17337 17.625 7.875 17.625ZM13.875 25.125H12.375C12.0766 25.125 11.7905 25.0065 11.5795 24.7955C11.3685 24.5845 11.25 24.2984 11.25 24C11.25 23.7016 11.3685 23.4155 11.5795 23.2045C11.7905 22.9935 12.0766 22.875 12.375 22.875H13.875C14.1734 22.875 14.4595 22.9935 14.6705 23.2045C14.8815 23.4155 15 23.7016 15 24C15 24.2984 14.8815 24.5845 14.6705 24.7955C14.4595 25.0065 14.1734 25.125 13.875 25.125ZM13.875 21.375H12.375C12.0766 21.375 11.7905 21.2565 11.5795 21.0455C11.3685 20.8345 11.25 20.5484 11.25 20.25C11.25 19.9516 11.3685 19.6655 11.5795 19.4545C11.7905 19.2435 12.0766 19.125 12.375 19.125H13.875C14.1734 19.125 14.4595 19.2435 14.6705 19.4545C14.8815 19.6655 15 19.9516 15 20.25C15 20.5484 14.8815 20.8345 14.6705 21.0455C14.4595 21.2565 14.1734 21.375 13.875 21.375ZM13.875 17.625H12.375C12.0766 17.625 11.7905 17.5065 11.5795 17.2955C11.3685 17.0845 11.25 16.7984 11.25 16.5C11.25 16.2016 11.3685 15.9155 11.5795 15.7045C11.7905 15.4935 12.0766 15.375 12.375 15.375H13.875C14.1734 15.375 14.4595 15.4935 14.6705 15.7045C14.8815 15.9155 15 16.2016 15 16.5C15 16.7984 14.8815 17.0845 14.6705 17.2955C14.4595 17.5065 14.1734 17.625 13.875 17.625ZM19.875 25.125H18.375C18.0766 25.125 17.7905 25.0065 17.5795 24.7955C17.3685 24.5845 17.25 24.2984 17.25 24C17.25 23.7016 17.3685 23.4155 17.5795 23.2045C17.7905 22.9935 18.0766 22.875 18.375 22.875H19.875C20.1734 22.875 20.4595 22.9935 20.6705 23.2045C20.8815 23.4155 21 23.7016 21 24C21 24.2984 20.8815 24.5845 20.6705 24.7955C20.4595 25.0065 20.1734 25.125 19.875 25.125ZM19.875 21.375H18.375C18.0766 21.375 17.7905 21.2565 17.5795 21.0455C17.3685 20.8345 17.25 20.5484 17.25 20.25C17.25 19.9516 17.3685 19.6655 17.5795 19.4545C17.7905 19.2435 18.0766 19.125 18.375 19.125H19.875C20.1734 19.125 20.4595 19.2435 20.6705 19.4545C20.8815 19.6655 21 19.9516 21 20.25C21 20.5484 20.8815 20.8345 20.6705 21.0455C20.4595 21.2565 20.1734 21.375 19.875 21.375ZM19.875 17.625H18.375C18.0766 17.625 17.7905 17.5065 17.5795 17.2955C17.3685 17.0845 17.25 16.7984 17.25 16.5C17.25 16.2016 17.3685 15.9155 17.5795 15.7045C17.7905 15.4935 18.0766 15.375 18.375 15.375H19.875C20.1734 15.375 20.4595 15.4935 20.6705 15.7045C20.8815 15.9155 21 16.2016 21 16.5C21 16.7984 20.8815 17.0845 20.6705 17.2955C20.4595 17.5065 20.1734 17.625 19.875 17.625ZM21.75 9.585C21.758 9.92186 21.6995 10.257 21.5779 10.5713C21.4563 10.8855 21.274 11.1727 21.0414 11.4165C20.8087 11.6603 20.5304 11.8558 20.2221 11.992C19.9139 12.1281 19.5819 12.2022 19.245 12.21H6.99C6.6538 12.2022 6.32246 12.128 6.01506 11.9917C5.70765 11.8554 5.43024 11.6596 5.19881 11.4156C4.96738 11.1716 4.78649 10.8843 4.66656 10.5701C4.54662 10.2559 4.49002 9.92114 4.5 9.585V6.585C4.48386 5.9072 4.73672 5.25058 5.20332 4.75868C5.66992 4.26678 6.31229 3.97963 6.99 3.96H19.245C19.924 3.97964 20.5679 4.2663 21.0369 4.75775C21.5059 5.2492 21.7621 5.90579 21.75 6.585V9.585Z" fill="#8200BB"/>
</g>
<defs>
<clipPath id="clip0_286_3415">
<rect width="26.25" height="30" fill="white"/>
</clipPath>
</defs>
</svg>
