<svg width="10" height="7" viewBox="0 0 10 7" fill="none" xmlns="http://www.w3.org/2000/svg">
<path d="M9.53645 0.296647C9.47461 0.23429 9.40102 0.184796 9.31995 0.151019C9.23888 0.117243 9.15192 0.0998535 9.06409 0.0998535C8.97627 0.0998535 8.88931 0.117243 8.80824 0.151019C8.72716 0.184796 8.65358 0.23429 8.59173 0.296647L3.63526 5.25977L1.55288 3.17073C1.48866 3.1087 1.41286 3.05993 1.32979 3.02719C1.24673 2.99446 1.15803 2.9784 1.06876 2.97995C0.979487 2.98149 0.891395 3.0006 0.809511 3.03619C0.727627 3.07178 0.653555 3.12315 0.591524 3.18737C0.529492 3.25158 0.480717 3.32739 0.447981 3.41045C0.415246 3.49352 0.399192 3.58222 0.400737 3.67149C0.402281 3.76076 0.421394 3.84885 0.456983 3.93073C0.492572 4.01262 0.54394 4.08669 0.608156 4.14872L3.1629 6.70347C3.22475 6.76582 3.29833 6.81532 3.3794 6.84909C3.46048 6.88287 3.54744 6.90026 3.63526 6.90026C3.72309 6.90026 3.81005 6.88287 3.89112 6.84909C3.97219 6.81532 4.04578 6.76582 4.10762 6.70347L9.53645 1.27464C9.60398 1.21234 9.65788 1.13672 9.69474 1.05256C9.7316 0.968403 9.75064 0.87752 9.75064 0.785641C9.75064 0.693763 9.7316 0.60288 9.69474 0.51872C9.65788 0.43456 9.60398 0.358948 9.53645 0.296647Z" fill="white"/>
</svg>
