<svg width="160" height="59" viewBox="0 0 160 59" fill="none" xmlns="http://www.w3.org/2000/svg">
<g clip-path="url(#clip0_1_561)">
<path d="M95.8369 41.0962V26.0474H107.88C109.527 26.0474 110.886 27.4061 110.886 29.053V30.9882C110.886 31.6675 110.598 32.3469 110.124 32.8204L109.362 33.5821L110.124 34.3438C110.598 34.8173 110.886 35.4761 110.886 36.176V38.1112C110.886 39.7581 109.527 41.1168 107.88 41.1168H95.8369V41.0962ZM107.386 32.0793C107.674 32.0793 107.88 31.8734 107.88 31.5852V29.5677C107.88 29.2795 107.674 29.0736 107.386 29.0736H99.3366C99.0484 29.0736 98.8426 29.2795 98.8426 29.5677V31.5852C98.8426 31.8734 99.0484 32.0793 99.3366 32.0793H107.386ZM107.386 38.0906C107.674 38.0906 107.88 37.8847 107.88 37.5965V35.579C107.88 35.2908 107.674 35.0849 107.386 35.0849H99.3366C99.0484 35.0849 98.8426 35.2908 98.8426 35.579V37.5965C98.8426 37.8847 99.0484 38.0906 99.3366 38.0906H107.386Z" fill="#5A2372"/>
<path d="M62.8364 19.3975V4.34863H76.0531C76.2383 4.34863 76.3825 4.49273 76.3825 4.67801V7.0249C76.3825 7.21018 76.2383 7.35428 76.0531 7.35428H65.8421V10.0305C65.8421 10.2158 65.9862 10.3599 66.1715 10.3599H75.0237C76.5883 10.3599 77.8853 11.6363 77.8853 13.2215V16.5565C77.8853 18.1211 76.6089 19.4181 75.0237 19.4181H62.8364V19.3975ZM66.1921 13.3656C66.0068 13.3656 65.8627 13.5097 65.8627 13.695V16.0419C65.8627 16.2271 66.0068 16.3712 66.1921 16.3712H74.5502C74.7355 16.3712 74.8796 16.2271 74.8796 16.0419V13.695C74.8796 13.5097 74.7355 13.3656 74.5502 13.3656H66.1921Z" fill="#5A2372"/>
<path d="M94.6839 19.3975H92.6869C92.3987 19.3975 92.1929 19.171 92.1929 18.9034V9.45412C92.1929 9.16591 92.0487 9.10415 91.8429 9.3306C89.0637 12.5627 86.2639 15.8154 83.4847 19.0063C83.32 19.2122 82.9289 19.3975 82.6612 19.3975H80.6437C80.3555 19.3975 80.1497 19.171 80.1497 18.9034V4.84271C80.1497 4.57508 80.3555 4.34863 80.6437 4.34863H82.6612C82.9289 4.34863 83.1553 4.57508 83.1553 4.84271V14.3126C83.1553 14.3743 83.1965 14.4567 83.2582 14.4773C83.3406 14.4979 83.4023 14.4773 83.4641 14.4155L91.8223 4.73978C92.0282 4.51332 92.337 4.34863 92.6663 4.34863H94.6632C94.9515 4.34863 95.1779 4.57508 95.1779 4.84271C95.1573 9.53647 95.1779 14.2302 95.1779 18.9034C95.1985 19.1504 94.9515 19.3975 94.6839 19.3975Z" fill="#5A2372"/>
<path d="M97.4221 16.8653C97.4221 16.5977 97.6486 16.3712 97.9162 16.3712H107.468C107.736 16.3712 107.963 16.1448 107.963 15.8772V13.8597C107.963 13.592 107.736 13.3656 107.468 13.3656H101.663C101.395 13.3656 101.169 13.1391 101.169 12.8715V10.854C101.169 10.5864 101.395 10.3599 101.663 10.3599H107.468C107.736 10.3599 107.963 10.1335 107.963 9.86586V7.84837C107.963 7.58074 107.736 7.35428 107.468 7.35428H97.9162C97.6486 7.35428 97.4221 7.12783 97.4221 6.8602V4.84271C97.4221 4.57508 97.6486 4.34863 97.9162 4.34863H110.968V9.31001C110.968 9.98937 110.701 10.6481 110.206 11.1216L109.445 11.8833L110.206 12.6451C110.68 13.1185 110.968 13.7773 110.968 14.4567V19.4181H97.9162C97.6486 19.4181 97.4221 19.1916 97.4221 18.924V16.8653Z" fill="#5A2372"/>
<path d="M113.212 4.8017C113.212 4.51348 113.418 4.30762 113.706 4.30762H115.723C116.012 4.30762 116.218 4.51348 116.218 4.8017V9.84543C116.218 10.1336 116.423 10.3395 116.712 10.3395H124.761C125.049 10.3395 125.255 10.1336 125.255 9.84543V4.8017C125.255 4.51348 125.461 4.30762 125.749 4.30762H127.767C128.055 4.30762 128.261 4.51348 128.261 4.8017V18.8624C128.261 19.1506 128.055 19.3565 127.767 19.3565H125.749C125.461 19.3565 125.255 19.1506 125.255 18.8624V13.8187C125.255 13.5304 125.049 13.3246 124.761 13.3246H116.712C116.423 13.3246 116.218 13.5304 116.218 13.8187V18.8624C116.218 19.1506 116.012 19.3565 115.723 19.3565H113.706C113.418 19.3565 113.212 19.1506 113.212 18.8624V4.8017Z" fill="#5A2372"/>
<path d="M130.484 19.3975V4.34863H143.536C143.804 4.34863 144.03 4.57508 144.03 4.84271V6.8602C144.03 7.12783 143.804 7.35428 143.536 7.35428H133.984C133.716 7.35428 133.49 7.58074 133.49 7.84837V9.86586C133.49 10.1335 133.716 10.3599 133.984 10.3599H143.536C143.804 10.3599 144.03 10.5864 144.03 10.854V12.8715C144.03 13.1391 143.804 13.3656 143.536 13.3656H133.984C133.716 13.3656 133.49 13.592 133.49 13.8597V15.8772C133.49 16.1448 133.716 16.3712 133.984 16.3712H143.536C143.804 16.3712 144.03 16.5977 144.03 16.8653V18.8828C144.03 19.1504 143.804 19.3769 143.536 19.3769H130.484V19.3975Z" fill="#5A2372"/>
<path d="M62.8364 41.0962V26.0474H70.0829C70.3506 26.0474 70.577 26.2738 70.577 26.5414V28.5589C70.577 28.8266 70.3506 29.053 70.0829 29.053H66.3568C66.0891 29.053 65.8627 29.2795 65.8627 29.5471V37.5965C65.8627 37.8641 66.0891 38.0906 66.3568 38.0906H75.909C76.1766 38.0906 76.403 38.317 76.403 38.5846V40.6021C76.403 40.8698 76.1766 41.0962 75.909 41.0962H62.8364Z" fill="#5A2372"/>
<path d="M146.274 19.3975V4.34863H159.573C159.841 4.34863 160.067 4.57508 160.067 4.84271V6.8602C160.067 7.12783 159.841 7.35428 159.573 7.35428H149.774C149.506 7.35428 149.28 7.58074 149.28 7.84837V15.8977C149.28 16.1654 149.506 16.3918 149.774 16.3918H159.326C159.594 16.3918 159.82 16.6183 159.82 16.8859V18.9034C159.82 19.171 159.594 19.3975 159.326 19.3975H146.274Z" fill="#5A2372"/>
<path d="M113.068 41.0962V26.0474H120.788C121.055 26.0474 121.282 26.2738 121.282 26.5414V28.5589C121.282 28.8266 121.055 29.053 120.788 29.053H116.568C116.3 29.053 116.074 29.2795 116.074 29.5471V31.5646C116.074 31.8322 116.3 32.0587 116.568 32.0587H126.12C126.387 32.0587 126.614 32.2851 126.614 32.5528V34.5702C126.614 34.8379 126.387 35.0643 126.12 35.0643H116.568C116.3 35.0643 116.074 35.2908 116.074 35.5584V37.5759C116.074 37.8435 116.3 38.07 116.568 38.07H126.12C126.387 38.07 126.614 38.2964 126.614 38.5641V40.5816C126.614 40.8492 126.387 41.0756 126.12 41.0756H113.068V41.0962Z" fill="#5A2372"/>
<path d="M124.02 26.0474H143.145C143.433 26.0474 143.639 26.2532 143.639 26.5414V28.5589C143.639 28.8472 143.433 29.053 143.145 29.053H138.101C137.813 29.053 137.607 29.2589 137.607 29.5471V40.6021C137.607 40.8904 137.401 41.0962 137.113 41.0962H135.096C134.807 41.0962 134.601 40.8904 134.601 40.6021V29.5471C134.601 29.2589 134.396 29.053 134.107 29.053H124.02C123.732 29.053 123.526 28.8472 123.526 28.5589V26.5414C123.526 26.2532 123.732 26.0474 124.02 26.0474Z" fill="#5A2372"/>
<path d="M93.6342 26.0885V41.1167H78.6265V31.6674C78.6265 31.4822 78.7706 31.3175 78.9765 31.3175H81.3028C81.488 31.3175 81.6527 31.4616 81.6527 31.6674V38.1111H90.6491V29.0941H73.171C72.9857 29.0941 72.821 28.95 72.821 28.7441V26.4178C72.821 26.2326 72.9652 26.0679 73.171 26.0679H93.6342V26.0885Z" fill="#5A2372"/>
<path d="M64.5863 52.7274H63.7011V54.7449H62.8364V49.9688H63.7011V51.9657H64.6069L65.9862 49.9688H66.9332L65.3068 52.2745L66.9949 54.7449H65.9862L64.5863 52.7274Z" fill="black"/>
<path d="M68.4772 54.4773C68.0861 54.2714 67.7773 53.9626 67.5508 53.5921C67.3244 53.2215 67.2214 52.7892 67.2214 52.3363C67.2214 51.8628 67.3244 51.4511 67.5508 51.0805C67.7773 50.7099 68.0861 50.4011 68.4772 50.1953C68.8684 49.9894 69.3007 49.8865 69.7948 49.8865C70.2888 49.8865 70.7212 49.9894 71.1123 50.1953C71.5035 50.4011 71.8123 50.6894 72.0387 51.0805C72.2652 51.4511 72.3681 51.8834 72.3681 52.3363C72.3681 52.8098 72.2652 53.2215 72.0387 53.5921C71.8123 53.9626 71.5035 54.2508 71.1123 54.4773C70.7212 54.6832 70.2888 54.7861 69.7948 54.7861C69.3213 54.8067 68.889 54.7038 68.4772 54.4773ZM70.6594 53.8185C70.9064 53.6744 71.1123 53.4685 71.2564 53.2215C71.4005 52.9745 71.4829 52.6863 71.4829 52.3569C71.4829 52.0275 71.4005 51.7599 71.2564 51.4922C71.1123 51.2452 70.9064 51.0393 70.6594 50.8952C70.4124 50.7511 70.1242 50.6893 69.7948 50.6893C69.486 50.6893 69.1978 50.7511 68.9301 50.8952C68.6831 51.0393 68.4772 51.2452 68.3331 51.4922C68.189 51.7393 68.1067 52.0275 68.1067 52.3569C68.1067 52.6863 68.189 52.9539 68.3331 53.2215C68.4772 53.4891 68.6831 53.6744 68.9301 53.8185C69.1772 53.9626 69.4654 54.0244 69.7948 54.0244C70.1242 54.0244 70.4124 53.9626 70.6594 53.8185Z" fill="black"/>
<path d="M77.6178 49.9482V54.7244H76.7326V52.6657H74.2622V54.7244H73.377V49.9482H74.2622V51.9246H76.7326V49.9482H77.6178Z" fill="black"/>
<path d="M79.8412 54.4773C79.45 54.2714 79.1412 53.9832 78.9353 53.5921C78.7089 53.2215 78.606 52.7892 78.606 52.3363C78.606 51.8628 78.7089 51.4511 78.9353 51.0805C79.1618 50.7099 79.4706 50.4217 79.8617 50.1953C80.2529 49.9894 80.6852 49.8865 81.1793 49.8865C81.5704 49.8865 81.9204 49.9482 82.2498 50.0923C82.5792 50.2364 82.8468 50.4217 83.0733 50.6893L82.4968 51.2246C82.1469 50.854 81.7351 50.6688 81.2205 50.6688C80.8911 50.6688 80.6029 50.7305 80.3352 50.8746C80.0676 51.0187 79.8823 51.2246 79.7176 51.4716C79.5735 51.7187 79.4912 52.0069 79.4912 52.3363C79.4912 52.6657 79.5735 52.9539 79.7176 53.2009C79.8617 53.448 80.0676 53.6538 80.3352 53.7979C80.6029 53.942 80.8911 54.0038 81.2205 54.0038C81.7351 54.0038 82.1469 53.8185 82.4968 53.4274L83.0733 53.9832C82.8468 54.2508 82.5792 54.4361 82.2498 54.5802C81.9204 54.7243 81.5704 54.7861 81.1793 54.7861C80.6646 54.8067 80.2323 54.7038 79.8412 54.4773Z" fill="black"/>
<path d="M86.9434 53.6332H84.5553L84.0818 54.7449H83.176L85.317 49.9688H86.1817L88.3433 54.7449H87.4169L86.9434 53.6332ZM86.6552 52.9332L85.7494 50.8334L84.8641 52.9332H86.6552Z" fill="black"/>
<path d="M93.2017 49.9482V54.7244H92.337V50.6894H90.443L90.4019 51.8834C90.3813 52.5627 90.3195 53.098 90.2372 53.5097C90.1548 53.9215 90.0107 54.2508 89.8254 54.4567C89.6402 54.6832 89.3725 54.7861 89.0432 54.7861C88.9196 54.7861 88.7549 54.7655 88.5491 54.7244L88.6108 53.9626C88.6726 53.9832 88.7343 53.9832 88.8167 53.9832C89.0843 53.9832 89.2902 53.8185 89.4137 53.4892C89.5372 53.1598 89.599 52.6451 89.6196 51.9246L89.6813 49.9482H93.2017Z" fill="black"/>
<path d="M97.9985 50.7099H96.4133V54.7449H95.5281V50.7099H93.9429V49.9688H97.9779V50.7099H97.9985Z" fill="black"/>
<path d="M98.7808 49.9482H99.6454V53.345L102.219 49.9482H103.042V54.7244H102.178V51.3276L99.6042 54.7244H98.7808V49.9482Z" fill="black"/>
<path d="M108.642 49.9482V54.7244H107.757V52.6657H105.286V54.7244H104.401V49.9482H105.286V51.9246H107.757V49.9482H108.642Z" fill="black"/>
<path d="M113.212 50.7099H110.844V54.7449H109.98V49.9688H113.232L113.212 50.7099Z" fill="black"/>
<path d="M13.3616 9.08255L13.4496 9.47962L11.1607 9.96493L10.5005 6.81042L12.7234 6.34717L12.8114 6.74424L11.0287 7.11925L11.2268 8.08987L12.8114 7.75898L12.8994 8.13399L11.3148 8.46488L11.5349 9.47962L13.3616 9.08255Z" fill="#5A2372"/>
<path d="M14.3521 9.25921C14.1101 9.21509 13.934 9.14891 13.7799 9.06067L13.89 8.68567C14.022 8.7739 14.1981 8.84008 14.3962 8.8842C14.5942 8.92832 14.7923 8.92832 14.9904 8.90626C15.2545 8.86214 15.4526 8.79596 15.5626 8.68567C15.6727 8.57537 15.7167 8.44301 15.6947 8.28859C15.6727 8.17829 15.6287 8.09005 15.5406 8.04593C15.4526 7.97976 15.3646 7.9577 15.2545 7.93564C15.1445 7.91358 14.9904 7.89152 14.7923 7.89152C14.5502 7.86946 14.3521 7.8474 14.1761 7.80328C14.022 7.75917 13.89 7.69298 13.7579 7.60474C13.6259 7.49445 13.5598 7.34003 13.5158 7.1415C13.4938 6.96502 13.5158 6.8106 13.5818 6.65619C13.6479 6.50177 13.7579 6.36942 13.934 6.25912C14.1101 6.14882 14.3301 6.08264 14.5942 6.03852C14.7923 6.01646 14.9684 5.9944 15.1665 6.01646C15.3645 6.03852 15.5186 6.08264 15.6727 6.14882L15.5846 6.54589C15.4306 6.47971 15.2765 6.43559 15.1224 6.41353C14.9684 6.39147 14.8143 6.39147 14.6603 6.41353C14.3962 6.45765 14.2201 6.52383 14.1101 6.65619C14 6.76648 13.956 6.89884 13.978 7.05326C14 7.16355 14.044 7.25179 14.1321 7.29591C14.2201 7.36209 14.3081 7.38415 14.4182 7.40621C14.5282 7.42827 14.6823 7.45033 14.8804 7.45033C15.1225 7.47239 15.3205 7.49445 15.4746 7.53857C15.6287 7.58269 15.7607 7.64886 15.8927 7.7371C16.0248 7.8474 16.0908 7.97976 16.1349 8.20035C16.1569 8.37683 16.1348 8.53125 16.0688 8.68567C16.0028 8.84008 15.8707 8.97244 15.7167 9.08273C15.5406 9.19303 15.3205 9.25921 15.0564 9.30333C14.8363 9.28127 14.5942 9.28127 14.3521 9.25921Z" fill="#5A2372"/>
<path d="M17.2572 6.08314L16.1568 6.17138L16.1128 5.77431L18.7758 5.55371L18.8198 5.95078L17.7194 6.03902L17.9615 8.86264L17.4993 8.90676L17.2572 6.08314Z" fill="#5A2372"/>
<path d="M19.195 8.73107C19.1289 8.66477 19.1069 8.59848 19.1069 8.51008C19.1069 8.42168 19.1289 8.35538 19.195 8.28908C19.261 8.22278 19.327 8.20068 19.415 8.20068C19.5031 8.20068 19.5691 8.22278 19.6351 8.28908C19.7012 8.35538 19.7232 8.42168 19.7232 8.51008C19.7232 8.59848 19.7012 8.68687 19.6351 8.73107C19.5691 8.79737 19.5031 8.81947 19.415 8.81947C19.327 8.81947 19.261 8.79737 19.195 8.73107Z" fill="#5A2372"/>
<path d="M23.6184 8.44311V8.84018L21.3075 8.774V8.46517L22.65 7.22984C22.8041 7.07542 22.9141 6.94306 22.9801 6.83276C23.0462 6.72246 23.0682 6.61217 23.0682 6.50187C23.0682 6.32539 23.0242 6.19304 22.8921 6.1048C22.7821 6.01656 22.606 5.95038 22.3859 5.95038C22.0338 5.95038 21.7477 6.06068 21.5496 6.28127L21.2415 5.9945C21.3735 5.84008 21.5496 5.72979 21.7477 5.64155C21.9457 5.55331 22.1878 5.53125 22.4299 5.53125C22.7601 5.53125 23.0242 5.61949 23.2222 5.79597C23.4203 5.97244 23.5084 6.19304 23.5084 6.45775C23.5084 6.63423 23.4643 6.78864 23.3763 6.94306C23.2883 7.09748 23.1562 7.27396 22.9361 7.45043L21.9237 8.37693L23.6184 8.44311Z" fill="#5A2372"/>
<path d="M24.5645 8.75187C24.3884 8.59745 24.2564 8.39892 24.1684 8.1342C24.0803 7.86949 24.0583 7.58271 24.1023 7.22976C24.1463 6.89887 24.2344 6.6121 24.3664 6.36944C24.4985 6.12679 24.6746 5.97237 24.8946 5.86207C25.1147 5.75177 25.3348 5.70765 25.5989 5.75177C25.841 5.77383 26.0611 5.86207 26.2372 6.01649C26.4132 6.1709 26.5453 6.36944 26.6333 6.63415C26.7214 6.89887 26.7434 7.18564 26.6994 7.53859C26.6553 7.86949 26.5673 8.15626 26.4352 8.39891C26.3032 8.64157 26.1271 8.79599 25.907 8.90629C25.687 9.01658 25.4669 9.0607 25.2248 9.01658C24.9607 8.99453 24.7406 8.90628 24.5645 8.75187ZM25.907 8.3548C26.0831 8.15626 26.1931 7.86949 26.2372 7.47242C26.2812 7.07535 26.2372 6.76651 26.1051 6.52385C25.9731 6.30326 25.775 6.1709 25.5329 6.14885C25.2688 6.12679 25.0487 6.19296 24.8726 6.39149C24.6966 6.59003 24.5865 6.8768 24.5425 7.27388C24.4985 7.67095 24.5425 7.97979 24.6746 8.22244C24.8066 8.44304 25.0047 8.57539 25.2688 8.61951C25.5109 8.64157 25.731 8.55333 25.907 8.3548Z" fill="#5A2372"/>
<path d="M29.1865 9.21492L29.1204 9.61198L26.8315 9.19286L26.8976 8.88402L28.4162 7.86928C28.5922 7.73693 28.7243 7.62663 28.8123 7.53839C28.8783 7.42809 28.9444 7.33986 28.9444 7.22956C28.9664 7.05308 28.9444 6.92073 28.8343 6.81043C28.7243 6.70013 28.5702 6.61189 28.3501 6.58983C27.998 6.52365 27.7119 6.58983 27.4698 6.78837L27.2057 6.45747C27.3598 6.32512 27.5358 6.23688 27.7559 6.19276C27.976 6.14864 28.1961 6.14864 28.4602 6.19276C28.7903 6.25894 29.0324 6.3913 29.2085 6.56777C29.3845 6.76631 29.4286 6.9869 29.3845 7.27367C29.3625 7.45015 29.2965 7.60457 29.1865 7.73692C29.0764 7.86928 28.9224 8.0237 28.6803 8.17812L27.5358 8.92814L29.1865 9.21492Z" fill="#5A2372"/>
<path d="M30.089 9.65649C29.935 9.48001 29.8249 9.25941 29.7589 8.9947C29.7149 8.72999 29.7149 8.42115 29.8029 8.09026C29.8909 7.75936 30.001 7.47259 30.1771 7.27405C30.3531 7.05346 30.5292 6.89904 30.7713 6.83286C30.9914 6.74462 31.2335 6.74463 31.4756 6.78875C31.7177 6.85493 31.9157 6.96522 32.0918 7.1417C32.2459 7.31818 32.3559 7.53877 32.4219 7.80349C32.466 8.0682 32.466 8.37703 32.3779 8.70792C32.2899 9.03881 32.1798 9.30353 32.0038 9.52413C31.8277 9.74472 31.6516 9.89914 31.4095 9.96532C31.1895 10.0536 30.9474 10.0536 30.7053 10.0094C30.4632 9.94326 30.2651 9.83296 30.089 9.65649ZM31.4756 9.43589C31.6736 9.25941 31.8277 8.9947 31.9157 8.59762C32.0038 8.20055 32.0038 7.89172 31.8937 7.64907C31.7837 7.40641 31.6076 7.25199 31.3655 7.18582C31.1014 7.11964 30.8813 7.18582 30.6833 7.3623C30.4852 7.53877 30.3311 7.82554 30.2431 8.20056C30.155 8.59763 30.155 8.90646 30.2651 9.14911C30.3751 9.39177 30.5512 9.54619 30.7933 9.61236C31.0574 9.67854 31.2775 9.61237 31.4756 9.43589Z" fill="#5A2372"/>
<path d="M39.5347 26.2008C39.0281 25.8476 38.5215 25.5165 38.015 25.2074C37.2881 24.7659 36.5613 24.3244 35.8125 23.927C36.6054 23.4193 37.4423 22.9557 38.2572 22.5141C38.8079 22.2272 39.3805 21.9402 39.9311 21.6753C40.1514 21.5649 40.3716 21.4545 40.5919 21.3662C40.3716 21.2117 40.1734 21.0351 39.9532 20.8805C39.9972 18.3197 39.7549 16.7744 39.7549 16.7744C39.7549 16.7744 37.0238 14.611 31.1432 13.2423C26.8924 12.2489 24.1393 12.0723 22.6856 12.0723H20.1528C18.6771 12.0723 15.924 12.2709 11.6952 13.2423C5.81457 14.611 3.08349 16.7744 3.08349 16.7744C3.08349 16.7744 2.84121 18.3197 2.88526 20.9026C2.66501 21.0571 2.46679 21.2117 2.26856 21.3883C2.48881 21.4766 2.68703 21.587 2.90728 21.6753C3.47992 21.9402 4.03055 22.2272 4.6032 22.5141C5.44014 22.9557 6.27709 23.4413 7.06999 23.9491C6.32114 24.3464 5.57229 24.788 4.8675 25.2295C4.3389 25.5606 3.83233 25.8917 3.32575 26.2229C2.15843 27.0397 1.0572 27.9006 0 28.8278C2.59894 37.5919 20.9236 52.9126 21.4082 53.0009C21.8927 52.8905 40.2395 37.614 42.8384 28.8278C41.8033 27.8786 40.702 27.0176 39.5347 26.2008ZM20.1528 13.6838H22.7077C23.5887 13.6838 25.2185 13.75 27.6853 14.1915C26.518 16.1563 24.6018 17.9224 22.1791 18.9599H20.8135C18.3688 17.9444 16.4526 16.1563 15.3073 14.1915C17.686 13.7721 19.2938 13.6838 20.1528 13.6838ZM32.6409 28.5408C31.3634 36.4661 27.3109 43.8615 21.4743 49.3363C16.0782 44.4796 12.3119 37.8569 10.66 30.7926C9.53677 26.1567 9.5588 21.3441 10.1094 16.6199C8.19325 17.5029 6.29912 18.5184 4.53712 19.6884C4.53712 18.8275 4.58118 18.1431 4.62523 17.6795C5.63837 17.0614 8.08313 15.7369 12.0696 14.8097C12.8846 14.6331 13.6334 14.4785 14.3162 14.324C13.1929 18.6509 13.9858 20.9909 17.2455 24.6555C17.9062 22.4921 19.0295 20.4832 20.7915 19.2911H22.157C23.919 20.4832 25.0423 22.4921 25.703 24.6555C28.9627 20.9909 29.7556 18.6509 28.6324 14.3461C29.2931 14.4785 30.0199 14.6331 30.7908 14.8097C34.7773 15.7369 37.2221 17.0614 38.2352 17.6795C38.2793 18.1431 38.3233 18.8054 38.3453 19.6884C36.5613 18.4963 34.6672 17.4588 32.707 16.5978C33.2796 20.5494 33.3237 24.5893 32.6409 28.5408Z" fill="#5A2372"/>
<path fill-rule="evenodd" clip-rule="evenodd" d="M18.522 32.757L17.9053 36.245L21.4733 40.6821L23.6317 38.0331L18.522 32.757ZM24.9752 35.8697L19.0285 29.7548L18.6321 31.9623L24.0281 37.5033L25.0192 36.245L24.9752 35.8697ZM24.7769 34.6776L24.2043 31.4766L21.4292 28.6289L19.5791 26.7304L19.1827 28.9159L24.6888 34.5893L24.7769 34.6776ZM24.0061 30.3287L22.7066 23.0217C23.1251 23.0217 23.3453 22.6244 23.4775 22.2049L23.6537 21.6972C23.1471 20.9687 22.5965 20.3727 21.9798 19.9312H20.9887C20.35 20.3947 19.7994 20.9908 19.3148 21.6972L19.491 22.2049C19.6452 22.6244 19.8434 23.0217 20.2619 23.0217L19.7553 25.9357L24.0061 30.3287Z" fill="#5A2372"/>
<path d="M53.9399 0H51.595V58.9086H53.9399V0Z" fill="#5A2372"/>
</g>
<defs>
<clipPath id="clip0_1_561">
<rect width="160" height="59" fill="white"/>
</clipPath>
</defs>
</svg>
