<svg width="200" height="74" viewBox="0 0 200 74" fill="none" xmlns="http://www.w3.org/2000/svg">
<path d="M119.796 51.3699V32.5588H134.85C136.909 32.5588 138.607 34.2572 138.607 36.3159V38.7348C138.607 39.584 138.247 40.4332 137.655 41.0251L136.703 41.9772L137.655 42.9294C138.247 43.5212 138.607 44.3447 138.607 45.2196V47.6386C138.607 49.6972 136.909 51.3956 134.85 51.3956H119.796V51.3699ZM134.233 40.0987C134.593 40.0987 134.85 39.8414 134.85 39.4811V36.9592C134.85 36.599 134.593 36.3416 134.233 36.3416H124.171C123.811 36.3416 123.553 36.599 123.553 36.9592V39.4811C123.553 39.8414 123.811 40.0987 124.171 40.0987H134.233ZM134.233 47.6128C134.593 47.6128 134.85 47.3555 134.85 46.9952V44.4734C134.85 44.1131 134.593 43.8558 134.233 43.8558H124.171C123.811 43.8558 123.553 44.1131 123.553 44.4734V46.9952C123.553 47.3555 123.811 47.6128 124.171 47.6128H134.233Z" fill="white"/>
<path d="M78.5454 24.2468V5.43579H95.0662C95.2978 5.43579 95.478 5.61592 95.478 5.84752V8.78112C95.478 9.01272 95.2978 9.19285 95.0662 9.19285H82.3025V12.5382C82.3025 12.7698 82.4826 12.9499 82.7142 12.9499H93.7795C95.7353 12.9499 97.3565 14.5454 97.3565 16.5268V20.6957C97.3565 22.6514 95.761 24.2726 93.7795 24.2726H78.5454V24.2468ZM82.74 16.707C82.5084 16.707 82.3282 16.8871 82.3282 17.1187V20.0523C82.3282 20.2839 82.5084 20.4641 82.74 20.4641H93.1877C93.4193 20.4641 93.5994 20.2839 93.5994 20.0523V17.1187C93.5994 16.8871 93.4193 16.707 93.1877 16.707H82.74Z" fill="white"/>
<path d="M118.355 24.2468H115.859C115.498 24.2468 115.241 23.9638 115.241 23.6292V11.8177C115.241 11.4574 115.061 11.3802 114.804 11.6633C111.33 15.7034 107.83 19.7692 104.356 23.7579C104.15 24.0152 103.661 24.2468 103.326 24.2468H100.805C100.444 24.2468 100.187 23.9638 100.187 23.6292V6.05339C100.187 5.71886 100.444 5.43579 100.805 5.43579H103.326C103.661 5.43579 103.944 5.71886 103.944 6.05339V17.8907C103.944 17.9679 103.996 18.0709 104.073 18.0966C104.176 18.1223 104.253 18.0966 104.33 18.0194L114.778 5.92472C115.035 5.64166 115.421 5.43579 115.833 5.43579H118.329C118.689 5.43579 118.972 5.71886 118.972 6.05339C118.947 11.9206 118.972 17.7878 118.972 23.6292C118.998 23.938 118.689 24.2468 118.355 24.2468Z" fill="white"/>
<path d="M121.778 21.0817C121.778 20.7471 122.061 20.4641 122.395 20.4641H134.335C134.67 20.4641 134.953 20.181 134.953 19.8465V17.3246C134.953 16.9901 134.67 16.707 134.335 16.707H127.079C126.744 16.707 126.461 16.4239 126.461 16.0894V13.5675C126.461 13.233 126.744 12.9499 127.079 12.9499H134.335C134.67 12.9499 134.953 12.6669 134.953 12.3323V9.81046C134.953 9.47592 134.67 9.19285 134.335 9.19285H122.395C122.061 9.19285 121.778 8.90979 121.778 8.57525V6.05339C121.778 5.71886 122.061 5.43579 122.395 5.43579H138.71V11.6375C138.71 12.4867 138.376 13.3102 137.758 13.9021L136.806 14.8542L137.758 15.8063C138.35 16.3982 138.71 17.2216 138.71 18.0708V24.2726H122.395C122.061 24.2726 121.778 23.9895 121.778 23.655V21.0817Z" fill="white"/>
<path d="M141.515 6.00212C141.515 5.64185 141.772 5.38452 142.132 5.38452H144.654C145.015 5.38452 145.272 5.64185 145.272 6.00212V12.3068C145.272 12.6671 145.529 12.9244 145.89 12.9244H155.951C156.312 12.9244 156.569 12.6671 156.569 12.3068V6.00212C156.569 5.64185 156.826 5.38452 157.186 5.38452H159.708C160.069 5.38452 160.326 5.64185 160.326 6.00212V23.578C160.326 23.9383 160.069 24.1956 159.708 24.1956H157.186C156.826 24.1956 156.569 23.9383 156.569 23.578V17.2733C156.569 16.9131 156.312 16.6557 155.951 16.6557H145.89C145.529 16.6557 145.272 16.9131 145.272 17.2733V23.578C145.272 23.9383 145.015 24.1956 144.654 24.1956H142.132C141.772 24.1956 141.515 23.9383 141.515 23.578V6.00212Z" fill="white"/>
<path d="M163.105 24.2468V5.43579H179.42C179.755 5.43579 180.038 5.71886 180.038 6.05339V8.57525C180.038 8.90979 179.755 9.19285 179.42 9.19285H167.48C167.145 9.19285 166.862 9.47592 166.862 9.81046V12.3323C166.862 12.6669 167.145 12.9499 167.48 12.9499H179.42C179.755 12.9499 180.038 13.233 180.038 13.5675V16.0894C180.038 16.4239 179.755 16.707 179.42 16.707H167.48C167.145 16.707 166.862 16.9901 166.862 17.3246V19.8465C166.862 20.181 167.145 20.4641 167.48 20.4641H179.42C179.755 20.4641 180.038 20.7471 180.038 21.0817V23.6035C180.038 23.938 179.755 24.2211 179.42 24.2211H163.105V24.2468Z" fill="white"/>
<path d="M78.5454 51.3699V32.5588H87.6035C87.9381 32.5588 88.2212 32.8419 88.2212 33.1764V35.6983C88.2212 36.0328 87.9381 36.3159 87.6035 36.3159H82.9458C82.6113 36.3159 82.3282 36.599 82.3282 36.9335V46.9952C82.3282 47.3298 82.6113 47.6128 82.9458 47.6128H94.8861C95.2206 47.6128 95.5037 47.8959 95.5037 48.2304V50.7523C95.5037 51.0868 95.2206 51.3699 94.8861 51.3699H78.5454Z" fill="white"/>
<path d="M182.842 24.2468V5.43579H199.466C199.801 5.43579 200.084 5.71886 200.084 6.05339V8.57525C200.084 8.90979 199.801 9.19285 199.466 9.19285H187.217C186.882 9.19285 186.599 9.47592 186.599 9.81046V19.8722C186.599 20.2067 186.882 20.4898 187.217 20.4898H199.157C199.492 20.4898 199.775 20.7729 199.775 21.1074V23.6292C199.775 23.9638 199.492 24.2468 199.157 24.2468H182.842Z" fill="white"/>
<path d="M141.335 51.3699V32.5588H150.985C151.319 32.5588 151.603 32.8419 151.603 33.1764V35.6983C151.603 36.0328 151.319 36.3159 150.985 36.3159H145.71C145.375 36.3159 145.092 36.599 145.092 36.9335V39.4554C145.092 39.7899 145.375 40.073 145.71 40.073H157.65C157.984 40.073 158.268 40.356 158.268 40.6906V43.2124C158.268 43.547 157.984 43.83 157.65 43.83H145.71C145.375 43.83 145.092 44.1131 145.092 44.4476V46.9695C145.092 47.304 145.375 47.5871 145.71 47.5871H157.65C157.984 47.5871 158.268 47.8702 158.268 48.2047V50.7266C158.268 51.0611 157.984 51.3442 157.65 51.3442H141.335V51.3699Z" fill="white"/>
<path d="M155.025 32.5588H178.931C179.291 32.5588 179.549 32.8162 179.549 33.1764V35.6983C179.549 36.0586 179.291 36.3159 178.931 36.3159H172.626C172.266 36.3159 172.009 36.5732 172.009 36.9335V50.7523C172.009 51.1126 171.751 51.3699 171.391 51.3699H168.869C168.509 51.3699 168.252 51.1126 168.252 50.7523V36.9335C168.252 36.5732 167.994 36.3159 167.634 36.3159H155.025C154.665 36.3159 154.407 36.0586 154.407 35.6983V33.1764C154.407 32.8162 154.665 32.5588 155.025 32.5588Z" fill="white"/>
<path d="M117.043 32.6106V51.3959H98.2832V39.5843C98.2832 39.3527 98.4633 39.1468 98.7206 39.1468H101.629C101.86 39.1468 102.066 39.327 102.066 39.5843V47.6388H113.311V36.3676H91.4638C91.2322 36.3676 91.0264 36.1875 91.0264 35.9302V33.0223C91.0264 32.7907 91.2065 32.5848 91.4638 32.5848H117.043V32.6106Z" fill="white"/>
<path d="M80.7327 65.9092H79.6262V68.4311H78.5454V62.4609H79.6262V64.9571H80.7585L82.4826 62.4609H83.6663L81.6334 65.3431L83.7435 68.4311H82.4826L80.7327 65.9092Z" fill="white"/>
<path d="M85.5966 68.0967C85.1076 67.8394 84.7216 67.4534 84.4386 66.9902C84.1555 66.527 84.0269 65.9865 84.0269 65.4204C84.0269 64.8285 84.1555 64.3139 84.4386 63.8507C84.7216 63.3875 85.1076 63.0015 85.5966 62.7442C86.0855 62.4868 86.6259 62.3582 87.2435 62.3582C87.8611 62.3582 88.4015 62.4868 88.8904 62.7442C89.3794 63.0015 89.7654 63.3618 90.0484 63.8507C90.3315 64.3139 90.4602 64.8543 90.4602 65.4204C90.4602 66.0123 90.3315 66.527 90.0484 66.9902C89.7654 67.4534 89.3794 67.8136 88.8904 68.0967C88.4015 68.354 87.8611 68.4827 87.2435 68.4827C86.6517 68.5084 86.1112 68.3797 85.5966 68.0967ZM88.3243 67.2732C88.6331 67.0931 88.8904 66.8357 89.0706 66.5269C89.2507 66.2181 89.3536 65.8579 89.3536 65.4462C89.3536 65.0344 89.2507 64.6999 89.0706 64.3654C88.8904 64.0566 88.6331 63.7992 88.3243 63.6191C88.0155 63.4389 87.6553 63.3617 87.2435 63.3617C86.8575 63.3617 86.4973 63.4389 86.1627 63.6191C85.8539 63.7992 85.5966 64.0566 85.4164 64.3654C85.2363 64.6742 85.1334 65.0344 85.1334 65.4462C85.1334 65.8579 85.2363 66.1924 85.4164 66.5269C85.5966 66.8615 85.8539 67.0931 86.1627 67.2732C86.4715 67.4533 86.8318 67.5305 87.2435 67.5305C87.6553 67.5305 88.0155 67.4533 88.3243 67.2732Z" fill="white"/>
<path d="M97.0223 62.4353V68.4054H95.9157V65.8321H92.8277V68.4054H91.7212V62.4353H92.8277V64.9057H95.9157V62.4353H97.0223Z" fill="white"/>
<path d="M99.8013 68.0967C99.3124 67.8394 98.9264 67.4791 98.6691 66.9902C98.386 66.527 98.2573 65.9865 98.2573 65.4204C98.2573 64.8285 98.386 64.3139 98.6691 63.8507C98.9521 63.3875 99.3381 63.0272 99.8271 62.7442C100.316 62.4868 100.856 62.3582 101.474 62.3582C101.963 62.3582 102.4 62.4354 102.812 62.6155C103.224 62.7956 103.558 63.0272 103.841 63.3617L103.121 64.0308C102.683 63.5676 102.169 63.336 101.525 63.336C101.114 63.336 100.753 63.4132 100.419 63.5934C100.084 63.7735 99.8528 64.0308 99.6469 64.3396C99.4668 64.6484 99.3639 65.0087 99.3639 65.4204C99.3639 65.8321 99.4668 66.1924 99.6469 66.5012C99.827 66.81 100.084 67.0674 100.419 67.2475C100.753 67.4276 101.114 67.5048 101.525 67.5048C102.169 67.5048 102.683 67.2732 103.121 66.7843L103.841 67.4791C103.558 67.8136 103.224 68.0452 102.812 68.2253C102.4 68.4055 101.963 68.4827 101.474 68.4827C100.831 68.5084 100.29 68.3797 99.8013 68.0967Z" fill="white"/>
<path d="M108.679 67.0415H105.694L105.102 68.4311H103.97L106.646 62.4609H107.727L110.429 68.4311H109.271L108.679 67.0415ZM108.319 66.1665L107.187 63.5417L106.08 66.1665H108.319Z" fill="white"/>
<path d="M116.502 62.4353V68.4054H115.421V63.3617H113.054L113.002 64.8542C112.977 65.7034 112.899 66.3725 112.796 66.8872C112.693 67.4018 112.513 67.8136 112.282 68.0709C112.05 68.354 111.716 68.4826 111.304 68.4826C111.149 68.4826 110.944 68.4569 110.686 68.4054L110.763 67.4533C110.841 67.479 110.918 67.479 111.021 67.479C111.355 67.479 111.613 67.2732 111.767 66.8614C111.921 66.4497 111.999 65.8064 112.024 64.9057L112.102 62.4353H116.502Z" fill="white"/>
<path d="M122.498 63.3873H120.517V68.4311H119.41V63.3873H117.429V62.4609H122.472V63.3873H122.498Z" fill="white"/>
<path d="M123.476 62.4353H124.557V66.6813L127.774 62.4353H128.803V68.4054H127.722V64.1594L124.505 68.4054H123.476V62.4353Z" fill="white"/>
<path d="M135.802 62.4353V68.4054H134.696V65.8321H131.608V68.4054H130.501V62.4353H131.608V64.9057H134.696V62.4353H135.802Z" fill="white"/>
<path d="M141.515 63.3873H138.555V68.4311H137.475V62.4609H141.54L141.515 63.3873Z" fill="white"/>
<path d="M16.7019 11.392L16.8119 11.89L13.9508 12.4987L13.1255 8.54221L15.9041 7.96118L16.0141 8.4592L13.7858 8.92956L14.0333 10.1469L16.0141 9.73192L16.1242 10.2023L14.1434 10.6173L14.4185 11.89L16.7019 11.392Z" fill="white"/>
<path d="M17.9402 11.6133C17.6376 11.558 17.4175 11.475 17.225 11.3643L17.3625 10.8939C17.5276 11.0046 17.7477 11.0876 17.9953 11.143C18.2429 11.1983 18.4905 11.1983 18.7381 11.1706C19.0682 11.1153 19.3158 11.0323 19.4533 10.8939C19.5909 10.7556 19.6459 10.5896 19.6184 10.3959C19.5909 10.2576 19.5359 10.1469 19.4258 10.0916C19.3158 10.0086 19.2057 9.9809 19.0682 9.95323C18.9306 9.92556 18.7381 9.8979 18.4905 9.8979C18.1878 9.87023 17.9402 9.84256 17.7202 9.78723C17.5276 9.73189 17.3625 9.64888 17.1975 9.53821C17.0324 9.39987 16.9499 9.2062 16.8948 8.95719C16.8673 8.73585 16.8948 8.54217 16.9774 8.3485C17.0599 8.15482 17.1975 7.98882 17.4175 7.85048C17.6376 7.71214 17.9127 7.62913 18.2429 7.5738C18.4905 7.54613 18.7105 7.51846 18.9581 7.54613C19.2057 7.5738 19.3983 7.62913 19.5909 7.71214L19.4809 8.21016C19.2883 8.12715 19.0957 8.07181 18.9031 8.04415C18.7105 8.01648 18.518 8.01648 18.3254 8.04415C17.9953 8.09948 17.7752 8.18249 17.6376 8.3485C17.5001 8.48683 17.445 8.65284 17.4726 8.84651C17.5001 8.98485 17.5551 9.09553 17.6651 9.15086C17.7752 9.23387 17.8852 9.26153 18.0228 9.2892C18.1603 9.31687 18.3529 9.34454 18.6005 9.34454C18.9031 9.37221 19.1507 9.39987 19.3433 9.45521C19.5359 9.51055 19.7009 9.59355 19.866 9.70422C20.0311 9.84256 20.1136 10.0086 20.1686 10.2852C20.1961 10.5066 20.1686 10.7003 20.0861 10.8939C20.0035 11.0876 19.8385 11.2536 19.6459 11.392C19.4258 11.5303 19.1507 11.6133 18.8206 11.6686C18.5455 11.641 18.2429 11.641 17.9402 11.6133Z" fill="white"/>
<path d="M21.5717 7.62936L20.1961 7.74003L20.1411 7.24201L23.4699 6.96533L23.5249 7.46335L22.1494 7.57403L22.452 11.1155L21.8743 11.1709L21.5717 7.62936Z" fill="white"/>
<path d="M23.9938 10.9505C23.9113 10.8674 23.8838 10.7842 23.8838 10.6733C23.8838 10.5625 23.9113 10.4793 23.9938 10.3961C24.0764 10.313 24.1589 10.2853 24.2689 10.2853C24.379 10.2853 24.4615 10.313 24.544 10.3961C24.6266 10.4793 24.6541 10.5625 24.6541 10.6733C24.6541 10.7842 24.6266 10.8951 24.544 10.9505C24.4615 11.0337 24.379 11.0614 24.2689 11.0614C24.1589 11.0614 24.0764 11.0337 23.9938 10.9505Z" fill="white"/>
<path d="M29.5229 10.5897V11.0877L26.6343 11.0047V10.6173L28.3125 9.06793C28.505 8.87426 28.6426 8.70824 28.7251 8.5699C28.8076 8.43156 28.8352 8.29322 28.8352 8.15489C28.8352 7.93354 28.7801 7.76754 28.6151 7.65687C28.4775 7.5462 28.2574 7.46319 27.9823 7.46319C27.5421 7.46319 27.1845 7.60153 26.9369 7.87821L26.5518 7.51853C26.7168 7.32485 26.9369 7.18651 27.1845 7.07584C27.4321 6.96517 27.7347 6.9375 28.0373 6.9375C28.45 6.9375 28.7801 7.04817 29.0277 7.26952C29.2753 7.49086 29.3854 7.76754 29.3854 8.09955C29.3854 8.3209 29.3303 8.51457 29.2203 8.70824C29.1103 8.90192 28.9452 9.12327 28.6701 9.34461L27.4046 10.5067L29.5229 10.5897Z" fill="white"/>
<path d="M30.7056 10.9773C30.4855 10.7836 30.3204 10.5346 30.2104 10.2026C30.1004 9.87056 30.0728 9.51088 30.1278 9.06819C30.1829 8.65318 30.2929 8.29349 30.458 7.98915C30.623 7.6848 30.8431 7.49112 31.1182 7.35278C31.3934 7.21444 31.6685 7.15911 31.9986 7.21444C32.3012 7.24211 32.5763 7.35278 32.7964 7.54646C33.0165 7.74014 33.1815 7.98914 33.2916 8.32116C33.4016 8.65317 33.4292 9.01286 33.3741 9.45554C33.3191 9.87056 33.2091 10.2302 33.044 10.5346C32.8789 10.8389 32.6588 11.0326 32.3837 11.171C32.1086 11.3093 31.8335 11.3646 31.5309 11.3093C31.2008 11.2816 30.9257 11.171 30.7056 10.9773ZM32.3837 10.4793C32.6038 10.2302 32.7414 9.87056 32.7964 9.37254C32.8514 8.87452 32.7964 8.48716 32.6313 8.18282C32.4663 7.90614 32.2187 7.74014 31.916 7.71247C31.5859 7.6848 31.3108 7.7678 31.0907 8.01681C30.8706 8.26582 30.7331 8.6255 30.6781 9.12352C30.623 9.62155 30.6781 10.0089 30.8431 10.3132C31.0082 10.5899 31.2558 10.7559 31.5859 10.8113C31.8886 10.8389 32.1636 10.7283 32.3837 10.4793Z" fill="white"/>
<path d="M36.4832 11.5577L36.4007 12.0557L33.5396 11.53L33.6221 11.1427L35.5203 9.86997C35.7404 9.70396 35.9055 9.56562 36.0155 9.45495C36.0981 9.31661 36.1806 9.20594 36.1806 9.0676C36.2081 8.84626 36.1806 8.68026 36.043 8.54192C35.9055 8.40358 35.7129 8.2929 35.4378 8.26524C34.9976 8.18223 34.64 8.26524 34.3374 8.51425L34.0072 8.09923C34.1998 7.93322 34.4199 7.82255 34.695 7.76721C34.9701 7.71187 35.2452 7.71187 35.5754 7.76721C35.988 7.85021 36.2906 8.01622 36.5107 8.23757C36.7308 8.48658 36.7858 8.76325 36.7308 9.12293C36.7033 9.34428 36.6208 9.53795 36.4832 9.70396C36.3457 9.86997 36.1531 10.0636 35.8505 10.2573L34.4199 11.198L36.4832 11.5577Z" fill="white"/>
<path d="M37.6114 12.1116C37.4188 11.8902 37.2813 11.6135 37.1987 11.2815C37.1437 10.9495 37.1437 10.5622 37.2538 10.1471C37.3638 9.73213 37.5014 9.37244 37.7214 9.12343C37.9415 8.84675 38.1616 8.65308 38.4642 8.57007C38.7394 8.4594 39.042 8.45941 39.3446 8.51474C39.6472 8.59775 39.8948 8.73609 40.1149 8.95743C40.3075 9.17877 40.445 9.45545 40.5275 9.78747C40.5826 10.1195 40.5826 10.5068 40.4725 10.9218C40.3625 11.3369 40.2249 11.6689 40.0048 11.9456C39.7848 12.2222 39.5647 12.4159 39.262 12.4989C38.9869 12.6096 38.6843 12.6096 38.3817 12.5543C38.0791 12.4713 37.8315 12.3329 37.6114 12.1116ZM39.3446 11.8349C39.5922 11.6135 39.7847 11.2815 39.8948 10.7835C40.0048 10.2855 40.0048 9.89814 39.8673 9.59379C39.7297 9.28944 39.5096 9.09577 39.207 9.01276C38.8769 8.92976 38.6018 9.01277 38.3542 9.23411C38.1066 9.45545 37.914 9.81513 37.804 10.2855C37.6939 10.7835 37.6939 11.1709 37.8315 11.4752C37.969 11.7795 38.1891 11.9732 38.4917 12.0562C38.8219 12.1392 39.097 12.0562 39.3446 11.8349Z" fill="white"/>
<path d="M49.4184 32.8624C48.7851 32.4194 48.1519 32.0041 47.5187 31.6164C46.6102 31.0627 45.7017 30.5089 44.7656 30.0105C45.7567 29.3737 46.8029 28.7922 47.8215 28.2384C48.5098 27.8785 49.2256 27.5185 49.9139 27.1863C50.1892 27.0478 50.4645 26.9094 50.7399 26.7986C50.4645 26.6048 50.2168 26.3833 49.9414 26.1895C49.9965 22.9777 49.6937 21.0395 49.6937 21.0395C49.6937 21.0395 46.2798 18.326 38.929 16.6093C33.6155 15.3633 30.1741 15.1418 28.3571 15.1418H25.191C23.3464 15.1418 19.905 15.391 14.619 16.6093C7.26821 18.326 3.85436 21.0395 3.85436 21.0395C3.85436 21.0395 3.55151 22.9777 3.60657 26.2172C3.33126 26.411 3.08348 26.6048 2.8357 26.8263C3.11101 26.9371 3.35878 27.0755 3.63409 27.1863C4.3499 27.5185 5.03819 27.8785 5.75399 28.2384C6.80018 28.7922 7.84636 29.4013 8.83748 30.0382C7.90142 30.5366 6.96537 31.0903 6.08437 31.6441C5.42362 32.0594 4.79041 32.4748 4.15719 32.8901C2.69804 33.9145 1.32149 34.9944 0 36.1573C3.24867 47.1496 26.1546 66.3653 26.7602 66.4761C27.3659 66.3376 50.2994 47.1773 53.548 36.1573C52.2541 34.9667 50.8775 33.8869 49.4184 32.8624ZM25.191 17.1631H28.3846C29.4858 17.1631 31.5231 17.2462 34.6066 17.7999C33.1475 20.2642 30.7522 22.4793 27.7238 23.7806H26.0169C22.961 22.5069 20.5657 20.2642 19.1341 17.7999C22.1075 17.2738 24.1173 17.1631 25.191 17.1631ZM40.8011 35.7974C39.2043 45.7375 34.1386 55.0131 26.8428 61.8798C20.0977 55.7884 15.3899 47.4818 13.3251 38.6216C11.921 32.807 11.9485 26.771 12.6368 20.8456C10.2416 21.9532 7.87389 23.2268 5.6714 24.6943C5.6714 23.6145 5.72647 22.7561 5.78154 22.1747C7.04797 21.3994 10.1039 19.7381 15.0871 18.5752C16.1057 18.3537 17.0418 18.1599 17.8952 17.9661C16.4911 23.393 17.4823 26.3279 21.5569 30.9242C22.3828 28.2108 23.7869 25.6911 25.9894 24.1959H27.6963C29.8988 25.6911 31.3029 28.2108 32.1288 30.9242C36.2034 26.3279 37.1945 23.393 35.7905 17.9937C36.6164 18.1599 37.5249 18.3537 38.4885 18.5752C43.4716 19.7381 46.5276 21.3994 47.794 22.1747C47.8491 22.7561 47.9041 23.5868 47.9317 24.6943C45.7017 23.1992 43.334 21.8978 40.8837 20.818C41.5995 25.7742 41.6546 30.8411 40.8011 35.7974Z" fill="white"/>
<path fill-rule="evenodd" clip-rule="evenodd" d="M23.1524 41.0855L22.3816 45.4602L26.8416 51.0254L29.5396 47.7029L23.1524 41.0855ZM31.2189 44.9895L23.7857 37.3199L23.2901 40.0887L30.0351 47.0384L31.274 45.4602L31.2189 44.9895ZM30.9712 43.4943L30.2554 39.4796L26.7865 35.9078L24.4739 33.5267L23.9784 36.2678L30.861 43.3836L30.9712 43.4943ZM30.0076 38.0398L28.3833 28.8751C28.9064 28.8751 29.1817 28.3767 29.3469 27.8506L29.5671 27.2138C28.9339 26.3001 28.2456 25.5525 27.4748 24.9988H26.2359C25.4375 25.5802 24.7492 26.3278 24.1435 27.2138L24.3638 27.8506C24.5565 28.3767 24.8043 28.8751 25.3274 28.8751L24.6942 32.5299L30.0076 38.0398Z" fill="white"/>
<path d="M67.4248 0H64.4937V73.8854H67.4248V0Z" fill="white"/>
</svg>
