<svg width="20" height="21" viewBox="0 0 20 21" fill="none" xmlns="http://www.w3.org/2000/svg">
<path fill-rule="evenodd" clip-rule="evenodd" d="M7.172 11.834L10.002 13.769L12.73 11.887L18.845 17.92C18.6837 17.9727 18.513 17.9993 18.333 18H1.667C1.447 18 1.237 17.957 1.044 17.88L7.172 11.834ZM20 6.876V16.333C20 16.58 19.946 16.814 19.85 17.025L13.856 11.111L20 6.876ZM0 6.929L6.042 11.061L0.106 16.919C0.0364628 16.7314 0.000578992 16.533 0 16.333L0 6.929ZM18.333 3C19.253 3 20 3.746 20 4.667V5.253L9.998 12.148L0 5.31V4.667C0 3.747 0.746 3 1.667 3H18.333Z" fill="white"/>
</svg>
