<svg width="16" height="20" viewBox="0 0 16 20" fill="none" xmlns="http://www.w3.org/2000/svg">
<g clip-path="url(#clip0_1_862)">
<path d="M7.99958 0C5.88757 0.00236318 3.86274 0.830934 2.36932 2.30394C0.875899 3.77694 0.0358432 5.77408 0.0334473 7.85722C0.0334473 14.5805 7.27539 19.6582 7.58407 19.8707C7.70584 19.9549 7.85091 20 7.99958 20C8.14825 20 8.29332 19.9549 8.41509 19.8707C8.72377 19.6582 15.9657 14.5805 15.9657 7.85722C15.9633 5.77408 15.1233 3.77694 13.6298 2.30394C12.1364 0.830934 10.1116 0.00236318 7.99958 0ZM7.99958 5.00005C8.57251 5.00005 9.13257 5.16762 9.60894 5.48157C10.0853 5.79552 10.4566 6.24175 10.6759 6.76383C10.8951 7.28591 10.9525 7.86039 10.8407 8.41463C10.7289 8.96887 10.453 9.47796 10.0479 9.87755C9.64279 10.2771 9.12663 10.5492 8.56471 10.6595C8.00279 10.7697 7.42035 10.7132 6.89103 10.4969C6.36172 10.2807 5.9093 9.91444 5.591 9.44458C5.2727 8.97472 5.1028 8.42232 5.1028 7.85722C5.1028 7.09945 5.408 6.37272 5.95125 5.8369C6.4945 5.30107 7.23131 5.00005 7.99958 5.00005Z" fill="white"/>
</g>
<defs>
<clipPath id="clip0_1_862">
<rect width="16" height="20" fill="white"/>
</clipPath>
</defs>
</svg>
