<svg width="20" height="20" viewBox="0 0 20 20" fill="none" xmlns="http://www.w3.org/2000/svg">
<g clip-path="url(#clip0_1_611)">
<path d="M19.3008 17.0134C19.1756 17.5746 18.8652 18.0774 18.4196 18.4409C17.9327 18.9347 17.3526 19.3268 16.7129 19.5945C16.0732 19.8621 15.3867 20 14.6932 20H14.3692C12.9138 19.921 11.4887 19.5526 10.1773 18.9164H10.1674C9.86331 18.7749 9.54929 18.6333 9.24524 18.4608C7.71443 17.6025 6.31034 16.5356 5.07326 15.2907C3.46783 13.7828 2.15039 11.9951 1.1854 10.0152C0.672553 8.93015 0.330246 7.77242 0.170572 6.58293C-0.0642336 5.33782 0.0770114 4.051 0.576305 2.88647C0.891515 2.36109 1.2765 1.88087 1.72073 1.45893C1.92062 1.23288 2.16501 1.05052 2.4386 0.923242C2.71219 0.795965 3.00911 0.726516 3.31077 0.719238C3.63884 0.755494 3.95645 0.85656 4.24515 1.01657C4.53385 1.17658 4.78789 1.39234 4.99252 1.65133C5.44809 2.14678 6.00436 2.66317 6.46093 3.13968L7.08897 3.75775C7.45782 4.08473 7.68611 4.5413 7.72698 5.03377C7.72698 5.48536 7.5605 5.921 7.26043 6.25894C7.06611 6.49529 6.85981 6.72155 6.64236 6.93682L6.44 7.14916C6.32236 7.25882 6.23264 7.3944 6.17682 7.54493C6.12697 7.69313 6.10704 7.84499 6.117 8.0005C6.2775 8.43016 6.52972 8.82094 6.8547 9.14493C7.36212 9.83278 7.86854 10.4309 8.38492 11.0789C9.31896 12.1632 10.4274 13.084 11.6647 13.8034C11.7913 13.8961 11.9368 13.9579 12.0914 13.9848C12.2249 13.9948 12.3605 13.9748 12.4861 13.925C12.84 13.7167 13.154 13.4495 13.4172 13.1345C13.7711 12.7011 14.2792 12.4216 14.8348 12.3549C15.3694 12.3623 15.8794 12.5809 16.2534 12.963C16.4557 13.1345 16.678 13.3677 16.8914 13.591L17.1944 13.9041L17.5084 14.2081L18.0458 14.7544C18.3661 15.0389 18.6665 15.3429 18.9469 15.6666C19.2281 16.0554 19.3547 16.5368 19.3008 17.0134ZM15.6662 10.076C15.4654 10.0739 15.2734 9.99325 15.1313 9.85124C14.9893 9.70923 14.9086 9.51722 14.9066 9.3164C14.9076 8.74296 14.7954 8.17496 14.5765 7.64498C14.3575 7.11499 14.0361 6.63345 13.6306 6.22797C13.2251 5.82249 12.7436 5.50106 12.2136 5.2821C11.6836 5.06314 11.1156 4.95097 10.5422 4.95202C10.3407 4.95202 10.1475 4.87199 10.005 4.72953C9.86259 4.58707 9.78256 4.39386 9.78256 4.19239C9.78256 3.99093 9.86259 3.79771 10.005 3.65526C10.1475 3.5128 10.3407 3.43277 10.5422 3.43277C11.3152 3.43158 12.0808 3.58296 12.7952 3.87822C13.5095 4.17349 14.1586 4.60683 14.7052 5.15341C15.2518 5.69999 15.6851 6.34906 15.9804 7.06343C16.2756 7.7778 16.427 8.54341 16.4258 9.3164C16.4261 9.41623 16.4066 9.51512 16.3685 9.6074C16.3304 9.69968 16.2745 9.78353 16.2039 9.85412C16.1333 9.92471 16.0495 9.98065 15.9572 10.0187C15.8649 10.0568 15.766 10.0763 15.6662 10.076Z" fill="#8200BB"/>
<path d="M19.18 9.72115C18.9794 9.71908 18.7875 9.63851 18.6455 9.49672C18.5035 9.35492 18.4227 9.16316 18.4204 8.96251C18.4219 7.98547 18.2308 7.0177 17.858 6.11459C17.4852 5.21147 16.9379 4.39074 16.2475 3.69936C15.5572 3.00797 14.7372 2.4595 13.8347 2.08533C12.9321 1.71115 11.9646 1.51863 10.9876 1.51876C10.8856 1.52246 10.7839 1.50556 10.6885 1.46907C10.5932 1.43259 10.5062 1.37726 10.4327 1.30641C10.3593 1.23555 10.3008 1.15061 10.2609 1.05667C10.221 0.962725 10.2004 0.8617 10.2004 0.759628C10.2004 0.657556 10.221 0.556531 10.2609 0.462587C10.3008 0.368642 10.3593 0.283706 10.4327 0.212849C10.5062 0.141992 10.5932 0.0866697 10.6885 0.0501849C10.7839 0.0137 10.8856 -0.0031986 10.9876 0.000498469C12.164 0.000497739 13.3289 0.232379 14.4157 0.682885C15.5024 1.13339 16.4898 1.79369 17.3212 2.62602C18.1526 3.45835 18.8118 4.44639 19.2611 5.53365C19.7104 6.62092 19.9409 7.78608 19.9396 8.96251C19.9399 9.06234 19.9204 9.16124 19.8823 9.25352C19.8443 9.3458 19.7883 9.42965 19.7177 9.50024C19.6471 9.57083 19.5633 9.62677 19.471 9.66486C19.3787 9.70294 19.2798 9.72141 19.18 9.72115Z" fill="#8200BB"/>
</g>
<defs>
<clipPath id="clip0_1_611">
<rect width="20" height="20" fill="white"/>
</clipPath>
</defs>
</svg>
