<svg width="192" height="183" viewBox="0 0 192 183" fill="none" xmlns="http://www.w3.org/2000/svg">
<path d="M176.767 63.1715C174.502 61.5922 172.237 60.1117 169.972 58.7298C166.723 56.7557 163.473 54.7815 160.125 53.0048C163.67 50.7346 167.412 48.6618 171.056 46.6877C173.518 45.4045 176.078 44.1214 178.54 42.9369C179.525 42.4434 180.51 41.9498 181.494 41.555C180.51 40.8641 179.623 40.0744 178.638 39.3835C178.835 27.9337 177.752 21.0243 177.752 21.0243C177.752 21.0243 165.541 11.3511 139.247 5.23138C120.241 0.789632 107.932 0 101.432 0H90.1071C83.5091 0 71.1993 0.888337 52.2916 5.23138C25.9981 11.3511 13.7869 21.0243 13.7869 21.0243C13.7869 21.0243 12.7036 27.9337 12.9006 39.4822C11.9158 40.1731 11.0295 40.8641 10.1432 41.6537C11.128 42.0485 12.0142 42.5421 12.999 42.9369C15.5594 44.1214 18.0214 45.4045 20.5818 46.6877C24.3239 48.6618 28.0661 50.8333 31.6113 53.1036C28.2631 54.8803 24.9148 56.8544 21.7635 58.8285C19.4001 60.309 17.1351 61.7896 14.8701 63.2702C9.65079 66.9223 4.72693 70.7718 0 74.9174C11.6204 114.104 93.5537 182.605 95.7202 183C97.8868 182.506 179.919 114.202 191.539 74.9174C186.911 70.6731 181.987 66.8236 176.767 63.1715ZM90.1071 7.20549H101.53C105.47 7.20549 112.757 7.5016 123.786 9.47571C118.567 18.2605 110 26.1569 99.167 30.7961H93.0614C82.1304 26.2556 73.5628 18.2605 68.442 9.47571C79.0776 7.6003 86.2664 7.20549 90.1071 7.20549ZM145.944 73.6343C140.232 109.07 122.112 142.136 96.0157 166.615C71.8887 144.9 55.049 115.288 47.6632 83.7023C42.6408 62.9741 42.7393 41.4563 45.2012 20.3333C36.6337 24.2815 28.1646 28.822 20.2864 34.0534C20.2864 30.2039 20.4834 27.144 20.6803 25.0712C25.2103 22.3074 36.1413 16.3851 53.9658 12.2395C57.6094 11.4498 60.9577 10.7589 64.0105 10.0679C58.9881 29.4142 62.5333 39.877 77.108 56.2621C80.0623 46.589 85.0847 37.6068 92.9629 32.2767H99.0685C106.947 37.6068 111.969 46.589 114.923 56.2621C129.498 39.877 133.043 29.4142 128.021 10.1667C130.975 10.7589 134.225 11.4498 137.672 12.2395C155.496 16.3851 166.427 22.3074 170.957 25.0712C171.154 27.144 171.351 30.1052 171.45 34.0534C163.473 28.7233 155.004 24.0841 146.239 20.2346C148.8 37.9029 148.997 55.966 145.944 73.6343Z" fill="#5A2372" fill-opacity="0.05"/>
<path fill-rule="evenodd" clip-rule="evenodd" d="M82.8149 92.486L80.0576 108.081L96.0108 127.921L105.661 116.076L82.8149 92.486ZM111.668 106.403L85.0799 79.0622L83.3073 88.9326L107.434 113.707L111.865 108.081L111.668 106.403ZM110.782 101.073L108.222 86.7611L95.8138 74.0283L87.5418 65.5398L85.7692 75.3115L110.388 100.678L110.782 101.073ZM107.336 81.6285L101.525 48.9575C103.396 48.9575 104.381 47.1808 104.972 45.3054L105.76 43.0352C103.495 39.778 101.033 37.113 98.2757 35.1389H93.8443C90.9885 37.2117 88.5265 39.8767 86.3601 43.0352L87.1479 45.3054C87.8372 47.1808 88.7235 48.9575 90.5946 48.9575L88.3296 61.9864L107.336 81.6285Z" fill="#5A2372" fill-opacity="0.05"/>
</svg>
