<svg width="31" height="30" viewBox="0 0 31 30" fill="none" xmlns="http://www.w3.org/2000/svg">
<path d="M28.6093 10.356C28.2427 10.0971 27.8761 9.85437 27.5095 9.62783C26.9835 9.30421 26.4576 8.98058 25.9157 8.68932C26.4895 8.31715 27.0951 7.97735 27.6848 7.65372C28.0833 7.44337 28.4977 7.23301 28.8961 7.03884C29.0555 6.95793 29.2149 6.87702 29.3743 6.8123C29.2149 6.69903 29.0715 6.56958 28.9121 6.45631C28.944 4.57929 28.7686 3.4466 28.7686 3.4466C28.7686 3.4466 26.7923 1.86084 22.5368 0.857603C19.4607 0.129448 17.4684 0 16.4165 0H14.5835C13.5157 0 11.5234 0.145629 8.46323 0.857603C4.20771 1.86084 2.23136 3.4466 2.23136 3.4466C2.23136 3.4466 2.05604 4.57929 2.08791 6.47249C1.92853 6.58576 1.78509 6.69903 1.64164 6.82848C1.80103 6.8932 1.94447 6.97411 2.10385 7.03884C2.51824 7.23301 2.9167 7.44337 3.3311 7.65372C3.93675 7.97735 4.54241 8.33333 5.11619 8.7055C4.57429 8.99676 4.03239 9.32039 3.52236 9.64401C3.13984 9.88673 2.77326 10.1294 2.40668 10.3722C1.56195 10.9709 0.765039 11.6019 0 12.2816C1.88072 18.7055 15.1414 29.9353 15.492 30C15.8427 29.9191 29.1193 18.7217 31 12.2816C30.2509 11.5858 29.454 10.9547 28.6093 10.356ZM14.5835 1.18123H16.4324C17.0699 1.18123 18.2493 1.22977 20.0344 1.55339C19.1897 2.99352 17.8031 4.28802 16.0499 5.04854H15.0617C13.2925 4.3042 11.9059 2.99352 11.0771 1.55339C12.7985 1.24595 13.962 1.18123 14.5835 1.18123ZM23.6206 12.0712C22.6961 17.8803 19.7635 23.301 15.5398 27.3139C11.635 23.754 8.90951 18.8997 7.71413 13.7217C6.90128 10.3236 6.91722 6.79611 7.31568 3.33333C5.92904 3.98058 4.55835 4.72492 3.28329 5.58253C3.28329 4.95146 3.31517 4.44984 3.34704 4.11003C4.08021 3.65696 5.84936 2.68608 8.73419 2.00647C9.3239 1.87702 9.86581 1.76375 10.3599 1.65048C9.54704 4.822 10.1208 6.53722 12.4797 9.2233C12.9578 7.63754 13.7707 6.16505 15.0458 5.29126H16.0339C17.309 6.16505 18.1218 7.63754 18.6 9.2233C20.9589 6.53722 21.5326 4.82201 20.7198 1.66667C21.1979 1.76375 21.7239 1.87702 22.2817 2.00647C25.1666 2.68608 26.9357 3.65696 27.6689 4.11003C27.7008 4.44984 27.7326 4.93528 27.7486 5.58253C26.4576 4.70874 25.0869 3.94822 23.6684 3.31715C24.0828 6.21359 24.1146 9.17476 23.6206 12.0712Z" fill="#8200BB"/>
<path fill-rule="evenodd" clip-rule="evenodd" d="M13.4052 15.1619L12.959 17.7185L15.541 20.9709L17.1029 19.0292L13.4052 15.1619ZM18.0751 17.4434L13.7718 12.9613L13.4849 14.5794L17.3898 18.6408L18.107 17.7185L18.0751 17.4434ZM17.9317 16.5696L17.5173 14.2234L15.5091 12.1361L14.1703 10.7445L13.8834 12.3464L17.8679 16.5049L17.9317 16.5696ZM17.3738 13.382L16.4335 8.02608C16.7363 8.02608 16.8957 7.73483 16.9913 7.42739L17.1188 7.05522C16.7522 6.52125 16.3538 6.08436 15.9075 5.76074H15.1903C14.7281 6.10054 14.3297 6.53743 13.979 7.05522L14.1065 7.42739C14.2181 7.73483 14.3615 8.02608 14.6644 8.02608L14.2978 10.162L17.3738 13.382Z" fill="#8200BB"/>
</svg>
