<svg width="169" height="100" viewBox="0 0 169 100" fill="none" xmlns="http://www.w3.org/2000/svg">
<path d="M7.13615 99.1559C7.49837 99.3568 7.95489 99.2261 8.15581 98.8638L11.43 92.9611C11.6309 92.5989 11.5001 92.1424 11.1379 91.9414C10.7757 91.7405 10.3192 91.8713 10.1183 92.2335L7.20789 97.4804L1.96101 94.57C1.59879 94.3691 1.14227 94.4998 0.941355 94.8621C0.740436 95.2243 0.871197 95.6808 1.23342 95.8817L7.13615 99.1559ZM168.51 0.7501C136.878 0.332787 90.814 4.68544 55.4784 19.1434C37.8104 26.3725 22.7476 36.1588 13.5417 49.2131C4.31069 62.3031 1.02138 78.6056 6.77894 98.7066L8.22096 98.2935C2.57852 78.5945 5.81838 62.7679 14.7676 50.0776C23.7419 37.3517 38.5104 27.7068 56.0465 20.5317C91.1192 6.1813 136.956 1.83395 168.49 2.24997L168.51 0.7501Z" fill="#F8E8FF"/>
</svg>
