<svg width="299" height="49" viewBox="0 0 299 49" fill="none" xmlns="http://www.w3.org/2000/svg">
<path d="M296.4 48.123C296.81 48.1783 297.188 47.8904 297.243 47.4799L298.146 40.7905C298.201 40.38 297.913 40.0024 297.503 39.947C297.092 39.8916 296.714 40.1795 296.659 40.59L295.857 46.5362L289.911 45.7341C289.5 45.6788 289.123 45.9666 289.067 46.3771C289.012 46.7876 289.3 47.1653 289.71 47.2207L296.4 48.123ZM1.05109 4.12795C42.523 1.29654 107.055 0.0978911 165.854 5.70131C195.255 8.50317 223.195 13.0033 246.092 19.839C269.021 26.6842 286.754 35.8324 295.904 47.8344L297.096 46.925C287.646 34.527 269.517 25.2668 246.521 18.4017C223.493 11.5269 195.445 7.01455 165.996 4.20808C107.095 -1.40517 42.477 -0.203814 0.948914 2.63144L1.05109 4.12795Z" fill="#F8E8FF"/>
</svg>
