<svg width="124" height="135" viewBox="0 0 124 135" fill="none" xmlns="http://www.w3.org/2000/svg">
<path d="M115.847 133.868C116.05 134.229 116.507 134.357 116.868 134.153L122.749 130.839C123.109 130.636 123.237 130.178 123.034 129.817C122.83 129.457 122.373 129.329 122.012 129.532L116.785 132.478L113.839 127.251C113.636 126.891 113.178 126.763 112.817 126.966C112.457 127.17 112.329 127.627 112.532 127.988L115.847 133.868ZM0.982678 1.7498C26.143 2.33106 62.0404 9.63536 88.0309 29.5825C101.012 39.5455 111.512 52.6536 116.991 69.6535C122.47 86.6548 122.946 107.61 115.778 133.298L117.222 133.702C124.454 107.79 124.005 86.5285 118.419 69.1934C112.831 51.8569 102.125 38.5087 88.9441 28.3925C62.6096 8.18131 26.357 0.835606 1.01732 0.2502L0.982678 1.7498Z" fill="#F8E8FF"/>
</svg>
