<svg width="167" height="104" viewBox="0 0 167 104" fill="none" xmlns="http://www.w3.org/2000/svg">
<path d="M48.5 26.2258L49.2417 26.3366L48.5 26.2258ZM84 26.2258L83.8104 26.9515L84 26.2258ZM4.40678 103.185C4.66023 103.512 5.13128 103.572 5.4589 103.319L10.7979 99.1889C11.1255 98.9355 11.1856 98.4644 10.9322 98.1368C10.6787 97.8092 10.2077 97.749 9.88005 98.0025L5.13431 101.674L1.46308 96.928C1.20963 96.6003 0.738582 96.5402 0.410957 96.7937C0.0833321 97.0471 0.0231981 97.5182 0.276644 97.8458L4.40678 103.185ZM166.171 7.99558C147.634 3.65347 119.485 -0.686059 95.2905 0.426603C83.1989 0.982683 72.0286 2.90288 63.5299 6.91316C55.0086 10.9341 49.1059 17.0961 47.7582 26.115L49.2417 26.3366C50.4941 17.9555 55.9539 12.1467 64.17 8.26972C72.4088 4.38208 83.351 2.47727 95.3594 1.92502C119.365 0.821015 147.366 5.13149 165.829 9.45605L166.171 7.99558ZM47.7582 26.115C46.9224 31.7085 47.9379 36.2503 50.2789 39.8423C52.6119 43.4221 56.2155 45.9888 60.4405 47.7316C68.8722 51.2096 79.9498 51.48 89.0703 49.839C93.6364 49.0174 97.7609 47.7084 100.852 46.0466C103.898 44.4091 106.137 42.3203 106.545 39.8478C106.966 37.2924 105.384 34.7643 101.861 32.4107C98.314 30.0414 92.5948 27.6956 84.1895 25.5002L83.8104 26.9515C92.1551 29.1311 97.686 31.4258 101.028 33.6581C104.393 35.9061 105.339 37.9405 105.065 39.6038C104.777 41.3501 103.098 43.1363 100.142 44.7254C97.2313 46.2901 93.2698 47.5593 88.8047 48.3627C79.8626 49.9716 69.0964 49.6795 61.0125 46.345C56.9798 44.6815 53.6576 42.2795 51.5355 39.0233C49.4214 35.7794 48.4525 31.6182 49.2417 26.3366L47.7582 26.115ZM84.1895 25.5002C70.6433 21.962 59.0851 23.0382 49.3138 27.1758C39.5528 31.309 31.6289 38.4737 25.2971 47.0297C12.6454 64.1255 6.26581 86.8876 4.25604 102.631L5.74396 102.821C7.73418 87.2307 14.0546 64.7428 26.5028 47.922C32.721 39.5196 40.4471 32.5593 49.8987 28.5571C59.3398 24.5593 70.5567 23.4897 83.8104 26.9515L84.1895 25.5002Z" fill="#F8E8FF"/>
</svg>
