<svg width="110" height="57" viewBox="0 0 110 57" fill="none" xmlns="http://www.w3.org/2000/svg">
<path d="M104.068 56.7163C104.407 56.9549 104.874 56.8738 105.113 56.5352L109.001 51.0176C109.24 50.679 109.159 50.2111 108.82 49.9725C108.482 49.7339 108.014 49.815 107.775 50.1536L104.319 55.0581L99.4144 51.6019C99.0758 51.3633 98.6079 51.4443 98.3693 51.7829C98.1307 52.1215 98.2118 52.5894 98.5504 52.828L104.068 56.7163ZM1.07263 2.34968C16.4118 0.857214 39.9678 1.78149 60.7549 9.38259C81.5268 16.9781 99.4229 31.1884 103.761 56.2312L105.239 55.9752C100.777 30.218 82.3399 15.6783 61.2701 7.97381C40.2155 0.27491 16.4215 -0.650813 0.92737 0.856725L1.07263 2.34968Z" fill="#F8E8FF"/>
</svg>
